<svg xmlns="http://www.w3.org/2000/svg" xmlns:xlink="http://www.w3.org/1999/xlink" xmlns:lucid="lucid" width="962.5" height="640"><g transform="translate(-80 -140)" lucid:page-tab-id="0_0"><path d="M100 160h184.5v120H100zM284.5 160H469v120H284.5zM469 160h184.5v120H469zM653.5 160H838v120H653.5zM838 160h184.5v120H838zM100 280h184.5v120H100zM284.5 280H469v120H284.5zM469 280h184.5v120H469zM653.5 280H838v120H653.5zM838 280h184.5v120H838zM100 400h184.5v120H100zM284.5 400H469v120H284.5zM469 400h184.5v120H469zM653.5 400H838v120H653.5zM838 400h184.5v120H838zM100 520h184.5v120H100zM284.5 520H469v120H284.5zM469 520h184.5v120H469zM653.5 520H838v120H653.5zM838 520h184.5v120H838zM100 640h184.5v120H100zM284.5 640H469v120H284.5zM469 640h184.5v120H469zM653.5 640H838v120H653.5zM838 640h184.5v120H838z" fill="#fff"/><path d="M100 160v120M284.5 160v120M469 160v120M653.5 160v120M838 160v120M1022.5 160v120M100 280v120M284.5 280v120M469 280v120M653.5 280v120M838 280v120M1022.5 280v120M100 400v120M284.5 400v120M469 400v120M653.5 400v120M838 400v120M1022.5 400v120M100 520v120M284.5 520v120M469 520v120M653.5 520v120M838 520v120M1022.5 520v120M100 640v120M284.5 640v120M469 640v120M653.5 640v120M838 640v120M1022.5 640v120M100 160h184.5M284.5 160H469M469 160h184.5M653.5 160H838M838 160h184.5M100 280h184.5M284.5 280H469M469 280h184.5M653.5 280H838M838 280h184.5M100 400h184.5M284.5 400H469M469 400h184.5M653.5 400H838M838 400h184.5M100 520h184.5M284.5 520H469M469 520h184.5M653.5 520H838M838 520h184.5M100 640h184.5M100 760h184.5M284.5 640H469M284.5 760H469M469 640h184.5M469 760h184.5M653.5 640H838M653.5 760H838M838 640h184.5M838 760h184.5" stroke="#000" fill="none"/><use xlink:href="#a" transform="matrix(1,0,0,1,105,165) translate(12.674999999999983 59.1)"/><use xlink:href="#b" transform="matrix(1,0,0,1,105,165) translate(93.52499999999999 59.1)"/><use xlink:href="#c" transform="matrix(1,0,0,1,289.5,165) translate(47.5 59.1)"/><use xlink:href="#d" transform="matrix(1,0,0,1,473.99999999999994,165) translate(52.05 59.1)"/><use xlink:href="#e" transform="matrix(1,0,0,1,658.4999999999999,165) translate(4.125 59.1)"/><use xlink:href="#f" transform="matrix(1,0,0,1,658.4999999999999,165) translate(51.075 59.1)"/><use xlink:href="#g" transform="matrix(1,0,0,1,658.4999999999999,165) translate(65.025 59.1)"/><use xlink:href="#h" transform="matrix(1,0,0,1,658.4999999999999,165) translate(99.025 59.1)"/><use xlink:href="#i" transform="matrix(1,0,0,1,842.9999999999999,165) translate(2.625 48.3)"/><use xlink:href="#j" transform="matrix(1,0,0,1,842.9999999999999,165) translate(64.05 69.9)"/><use xlink:href="#k" transform="matrix(1,0,0,1,105,285) translate(56.075 59.1)"/><use xlink:href="#l" transform="matrix(1,0,0,1,289.5,285) translate(72.525 59.1)"/><use xlink:href="#m" transform="matrix(1,0,0,1,473.99999999999994,285) translate(13.649999999999991 26.69999999999999)"/><use xlink:href="#n" transform="matrix(1,0,0,1,473.99999999999994,285) translate(140.4 26.69999999999999)"/><use xlink:href="#o" transform="matrix(1,0,0,1,473.99999999999994,285) translate(27.074999999999996 48.29999999999999)"/><use xlink:href="#p" transform="matrix(1,0,0,1,473.99999999999994,285) translate(98.025 48.29999999999999)"/><use xlink:href="#q" transform="matrix(1,0,0,1,473.99999999999994,285) translate(11.150000000000006 69.89999999999999)"/><use xlink:href="#r" transform="matrix(1,0,0,1,473.99999999999994,285) translate(88.10000000000001 69.89999999999999)"/><use xlink:href="#s" transform="matrix(1,0,0,1,473.99999999999994,285) translate(114.05000000000001 69.89999999999999)"/><use xlink:href="#t" transform="matrix(1,0,0,1,473.99999999999994,285) translate(61.025 91.5)"/><use xlink:href="#u" transform="matrix(1,0,0,1,658.4999999999999,285) translate(76.025 59.1)"/><use xlink:href="#v" transform="matrix(1,0,0,1,842.9999999999999,285) translate(26.049999999999997 59.1)"/><use xlink:href="#w" transform="matrix(1,0,0,1,842.9999999999999,285) translate(46.05 59.1)"/><use xlink:href="#x" transform="matrix(1,0,0,1,105,405) translate(63.55 59.1)"/><use xlink:href="#y" transform="matrix(1,0,0,1,289.5,405) translate(71.025 59.1)"/><use xlink:href="#z" transform="matrix(1,0,0,1,473.99999999999994,405) translate(22.924999999999997 26.69999999999999)"/><use xlink:href="#r" transform="matrix(1,0,0,1,473.99999999999994,405) translate(62.225 26.69999999999999)"/><use xlink:href="#A" transform="matrix(1,0,0,1,473.99999999999994,405) translate(88.175 26.69999999999999)"/><use xlink:href="#B" transform="matrix(1,0,0,1,473.99999999999994,405) translate(0.6500000000000057 48.29999999999999)"/><use xlink:href="#C" transform="matrix(1,0,0,1,473.99999999999994,405) translate(66.5 48.29999999999999)"/><use xlink:href="#D" transform="matrix(1,0,0,1,473.99999999999994,405) translate(20.650000000000006 69.89999999999999)"/><use xlink:href="#E" transform="matrix(1,0,0,1,473.99999999999994,405) translate(106.4 69.89999999999999)"/><use xlink:href="#F" transform="matrix(1,0,0,1,473.99999999999994,405) translate(139.35000000000002 69.89999999999999)"/><use xlink:href="#G" transform="matrix(1,0,0,1,473.99999999999994,405) translate(28.549999999999997 91.5)"/><g><use xlink:href="#H" transform="matrix(1,0,0,1,658.4999999999999,405) translate(72.825 59.1)"/></g><g><use xlink:href="#I" transform="matrix(1,0,0,1,842.9999999999999,405) translate(13.650000000000006 48.3)"/><use xlink:href="#J" transform="matrix(1,0,0,1,842.9999999999999,405) translate(41.60000000000001 48.3)"/><use xlink:href="#K" transform="matrix(1,0,0,1,842.9999999999999,405) translate(136.35000000000002 48.3)"/><use xlink:href="#L" transform="matrix(1,0,0,1,842.9999999999999,405) translate(37.025 69.9)"/><use xlink:href="#M" transform="matrix(1,0,0,1,842.9999999999999,405) translate(74.975 69.9)"/><use xlink:href="#N" transform="matrix(1,0,0,1,842.9999999999999,405) translate(99.975 69.9)"/></g><g><use xlink:href="#O" transform="matrix(1,0,0,1,105,525) translate(61.025 59.1)"/></g><g><use xlink:href="#P" transform="matrix(1,0,0,1,289.5,525) translate(59.574999999999996 59.1)"/></g><g><use xlink:href="#z" transform="matrix(1,0,0,1,473.99999999999994,525) translate(22.924999999999997 37.5)"/><use xlink:href="#r" transform="matrix(1,0,0,1,473.99999999999994,525) translate(62.225 37.5)"/><use xlink:href="#A" transform="matrix(1,0,0,1,473.99999999999994,525) translate(88.175 37.5)"/><use xlink:href="#B" transform="matrix(1,0,0,1,473.99999999999994,525) translate(30.6 59.1)"/><use xlink:href="#E" transform="matrix(1,0,0,1,473.99999999999994,525) translate(96.44999999999999 59.1)"/><use xlink:href="#F" transform="matrix(1,0,0,1,473.99999999999994,525) translate(129.4 59.1)"/><use xlink:href="#G" transform="matrix(1,0,0,1,473.99999999999994,525) translate(28.549999999999997 80.70000000000002)"/></g><g><use xlink:href="#H" transform="matrix(1,0,0,1,658.4999999999999,525) translate(72.825 59.1)"/></g><g><use xlink:href="#Q" transform="matrix(1,0,0,1,842.9999999999999,525) translate(3.6499999999999915 48.3)"/><use xlink:href="#R" transform="matrix(1,0,0,1,842.9999999999999,525) translate(92.35000000000001 48.3)"/><use xlink:href="#S" transform="matrix(1,0,0,1,842.9999999999999,525) translate(122.35000000000001 48.3)"/><use xlink:href="#T" transform="matrix(1,0,0,1,842.9999999999999,525) translate(142.35000000000002 48.3)"/><use xlink:href="#U" transform="matrix(1,0,0,1,842.9999999999999,525) translate(36.074999999999996 69.9)"/><use xlink:href="#V" transform="matrix(1,0,0,1,842.9999999999999,525) translate(55.02499999999999 69.9)"/></g><g><use xlink:href="#W" transform="matrix(1,0,0,1,105,645) translate(48.525 59.1)"/></g><g><use xlink:href="#X" transform="matrix(1,0,0,1,289.5,645) translate(61.55 59.1)"/></g><g><use xlink:href="#Y" transform="matrix(1,0,0,1,473.99999999999994,645) translate(58.074999999999996 48.3)"/><use xlink:href="#Z" transform="matrix(1,0,0,1,473.99999999999994,645) translate(4.675000000000011 69.9)"/></g><g><use xlink:href="#H" transform="matrix(1,0,0,1,658.4999999999999,645) translate(72.825 59.1)"/></g><g><use xlink:href="#v" transform="matrix(1,0,0,1,842.9999999999999,645) translate(11.049999999999997 37.5)"/><use xlink:href="#aa" transform="matrix(1,0,0,1,842.9999999999999,645) translate(31.049999999999997 37.5)"/><use xlink:href="#K" transform="matrix(1,0,0,1,842.9999999999999,645) translate(138.95 37.5)"/><use xlink:href="#ab" transform="matrix(1,0,0,1,842.9999999999999,645) translate(25.549999999999997 59.1)"/><use xlink:href="#ac" transform="matrix(1,0,0,1,842.9999999999999,645) translate(71.45 59.1)"/><use xlink:href="#ad" transform="matrix(1,0,0,1,842.9999999999999,645) translate(114.45 59.1)"/><use xlink:href="#ae" transform="matrix(1,0,0,1,842.9999999999999,645) translate(62.525 80.70000000000002)"/></g><defs><path d="M209 0H11v-25l151-195H24v-28h176v25L50-27h159V0" id="af"/><path d="M194 0L95-120 63-95V0H30v-248h33v124l119-124h40L117-140 236 0h-42" id="ag"/><path d="M16-82v-28h88v28H16" id="ah"/><path d="M185-189c-5-48-123-54-124 2 14 75 158 14 163 119 3 78-121 87-175 55-17-10-28-26-33-46l33-7c5 56 141 63 141-1 0-78-155-14-162-118-5-82 145-84 179-34 5 7 8 16 11 25" id="ai"/><path d="M117-194c89-4 53 116 60 194h-32v-121c0-31-8-49-39-48C34-167 62-67 57 0H25l-1-190h30c1 10-1 24 2 32 11-22 29-35 61-36" id="aj"/><path d="M141-36C126-15 110 5 73 4 37 3 15-17 15-53c-1-64 63-63 125-63 3-35-9-54-41-54-24 1-41 7-42 31l-33-3c5-37 33-52 76-52 45 0 72 20 72 64v82c-1 20 7 32 28 27v20c-31 9-61-2-59-35zM48-53c0 20 12 33 32 33 41-3 63-29 60-74-43 2-92-5-92 41" id="ak"/><path d="M114-163C36-179 61-72 57 0H25l-1-190h30c1 12-1 29 2 39 6-27 23-49 58-41v29" id="al"/><path d="M143 0L79-87 56-68V0H24v-261h32v163l83-92h37l-77 82L181 0h-38" id="am"/><g id="a"><use transform="matrix(0.05,0,0,0.05,0,0)" xlink:href="#af"/><use transform="matrix(0.05,0,0,0.05,10.950000000000001,0)" xlink:href="#ag"/><use transform="matrix(0.05,0,0,0.05,22.950000000000003,0)" xlink:href="#ah"/><use transform="matrix(0.05,0,0,0.05,28.900000000000002,0)" xlink:href="#ai"/><use transform="matrix(0.05,0,0,0.05,40.900000000000006,0)" xlink:href="#aj"/><use transform="matrix(0.05,0,0,0.05,50.900000000000006,0)" xlink:href="#ak"/><use transform="matrix(0.05,0,0,0.05,60.900000000000006,0)" xlink:href="#al"/><use transform="matrix(0.05,0,0,0.05,66.85000000000001,0)" xlink:href="#am"/></g><path d="M30 0v-248h33v221h125V0H30" id="an"/><path d="M24-231v-30h32v30H24zM24 0v-190h32V0H24" id="ao"/><path d="M115-194c53 0 69 39 70 98 0 66-23 100-70 100C84 3 66-7 56-30L54 0H23l1-261h32v101c10-23 28-34 59-34zm-8 174c40 0 45-34 45-75 0-40-5-75-45-74-42 0-51 32-51 76 0 43 10 73 51 73" id="ap"/><path d="M100-194c63 0 86 42 84 106H49c0 40 14 67 53 68 26 1 43-12 49-29l28 8c-11 28-37 45-77 45C44 4 14-33 15-96c1-61 26-98 85-98zm52 81c6-60-76-77-97-28-3 7-6 17-6 28h103" id="aq"/><path d="M135-143c-3-34-86-38-87 0 15 53 115 12 119 90S17 21 10-45l28-5c4 36 97 45 98 0-10-56-113-15-118-90-4-57 82-63 122-42 12 7 21 19 24 35" id="ar"/><g id="b"><use transform="matrix(0.05,0,0,0.05,0,0)" xlink:href="#an"/><use transform="matrix(0.05,0,0,0.05,10,0)" xlink:href="#ao"/><use transform="matrix(0.05,0,0,0.05,13.949999999999998,0)" xlink:href="#ap"/><use transform="matrix(0.05,0,0,0.05,23.95,0)" xlink:href="#al"/><use transform="matrix(0.05,0,0,0.05,29.899999999999995,0)" xlink:href="#ak"/><use transform="matrix(0.05,0,0,0.05,39.9,0)" xlink:href="#al"/><use transform="matrix(0.05,0,0,0.05,45.85,0)" xlink:href="#ao"/><use transform="matrix(0.05,0,0,0.05,49.800000000000004,0)" xlink:href="#aq"/><use transform="matrix(0.05,0,0,0.05,59.800000000000004,0)" xlink:href="#ar"/></g><path d="M177-190C167-65 218 103 67 71c-23-6-38-20-44-43l32-5c15 47 100 32 89-28v-30C133-14 115 1 83 1 29 1 15-40 15-95c0-56 16-97 71-98 29-1 48 16 59 35 1-10 0-23 2-32h30zM94-22c36 0 50-32 50-73 0-42-14-75-50-75-39 0-46 34-46 75s6 73 46 73" id="as"/><path d="M84 4C-5 8 30-112 23-190h32v120c0 31 7 50 39 49 72-2 45-101 50-169h31l1 190h-30c-1-10 1-25-2-33-11 22-28 36-60 37" id="at"/><g id="c"><use transform="matrix(0.05,0,0,0.05,0,0)" xlink:href="#an"/><use transform="matrix(0.05,0,0,0.05,10,0)" xlink:href="#ak"/><use transform="matrix(0.05,0,0,0.05,20,0)" xlink:href="#aj"/><use transform="matrix(0.05,0,0,0.05,30,0)" xlink:href="#as"/><use transform="matrix(0.05,0,0,0.05,40,0)" xlink:href="#at"/><use transform="matrix(0.05,0,0,0.05,50,0)" xlink:href="#ak"/><use transform="matrix(0.05,0,0,0.05,60,0)" xlink:href="#as"/><use transform="matrix(0.05,0,0,0.05,70,0)" xlink:href="#aq"/></g><path d="M63-220v92h138v28H63V0H30v-248h175v28H63" id="au"/><path d="M59-47c-2 24 18 29 38 22v24C64 9 27 4 27-40v-127H5v-23h24l9-43h21v43h35v23H59v120" id="av"/><g id="d"><use transform="matrix(0.05,0,0,0.05,0,0)" xlink:href="#au"/><use transform="matrix(0.05,0,0,0.05,10.950000000000001,0)" xlink:href="#aq"/><use transform="matrix(0.05,0,0,0.05,20.950000000000003,0)" xlink:href="#ak"/><use transform="matrix(0.05,0,0,0.05,30.950000000000003,0)" xlink:href="#av"/><use transform="matrix(0.05,0,0,0.05,35.95,0)" xlink:href="#at"/><use transform="matrix(0.05,0,0,0.05,45.95,0)" xlink:href="#al"/><use transform="matrix(0.05,0,0,0.05,51.900000000000006,0)" xlink:href="#aq"/><use transform="matrix(0.05,0,0,0.05,61.900000000000006,0)" xlink:href="#ar"/></g><path d="M30-248c118-7 216 8 213 122C240-48 200 0 122 0H30v-248zM63-27c89 8 146-16 146-99s-60-101-146-95v194" id="aw"/><path d="M100-194c62-1 85 37 85 99 1 63-27 99-86 99S16-35 15-95c0-66 28-99 85-99zM99-20c44 1 53-31 53-75 0-43-8-75-51-75s-53 32-53 75 10 74 51 75" id="ax"/><g id="e"><use transform="matrix(0.05,0,0,0.05,0,0)" xlink:href="#aw"/><use transform="matrix(0.05,0,0,0.05,12.950000000000001,0)" xlink:href="#ax"/><use transform="matrix(0.05,0,0,0.05,22.950000000000003,0)" xlink:href="#aq"/><use transform="matrix(0.05,0,0,0.05,32.95,0)" xlink:href="#ar"/></g><g id="f"><use transform="matrix(0.05,0,0,0.05,0,0)" xlink:href="#ao"/><use transform="matrix(0.05,0,0,0.05,3.95,0)" xlink:href="#av"/></g><g id="g"><use transform="matrix(0.05,0,0,0.05,0,0)" xlink:href="#at"/><use transform="matrix(0.05,0,0,0.05,10,0)" xlink:href="#ar"/><use transform="matrix(0.05,0,0,0.05,19,0)" xlink:href="#aq"/></g><path d="M24 0v-261h32V0H24" id="ay"/><path d="M103-251c84 0 111 97 45 133-19 10-37 24-39 52H78c0-63 77-55 77-114 0-30-21-42-52-43-32 0-53 17-56 46l-32-2c7-45 34-72 88-72zM77 0v-35h34V0H77" id="az"/><g id="h"><use transform="matrix(0.05,0,0,0.05,0,0)" xlink:href="#ay"/><use transform="matrix(0.05,0,0,0.05,3.95,0)" xlink:href="#ao"/><use transform="matrix(0.05,0,0,0.05,7.9,0)" xlink:href="#ap"/><use transform="matrix(0.05,0,0,0.05,17.9,0)" xlink:href="#ar"/><use transform="matrix(0.05,0,0,0.05,26.899999999999995,0)" xlink:href="#aj"/><use transform="matrix(0.05,0,0,0.05,36.9,0)" xlink:href="#ak"/><use transform="matrix(0.05,0,0,0.05,46.9,0)" xlink:href="#al"/><use transform="matrix(0.05,0,0,0.05,52.85,0)" xlink:href="#am"/><use transform="matrix(0.05,0,0,0.05,61.85,0)" xlink:href="#az"/></g><path d="M30-248c87 1 191-15 191 75 0 78-77 80-158 76V0H30v-248zm33 125c57 0 124 11 124-50 0-59-68-47-124-48v98" id="aA"/><path d="M85-194c31 0 48 13 60 33l-1-100h32l1 261h-30c-2-10 0-23-3-31C134-8 116 4 85 4 32 4 16-35 15-94c0-66 23-100 70-100zm9 24c-40 0-46 34-46 75 0 40 6 74 45 74 42 0 51-32 51-76 0-42-9-74-50-73" id="aB"/><path d="M96-169c-40 0-48 33-48 73s9 75 48 75c24 0 41-14 43-38l32 2c-6 37-31 61-74 61-59 0-76-41-82-99-10-93 101-131 147-64 4 7 5 14 7 22l-32 3c-4-21-16-35-41-35" id="aC"/><g id="i"><use transform="matrix(0.05,0,0,0.05,0,0)" xlink:href="#aA"/><use transform="matrix(0.05,0,0,0.05,12,0)" xlink:href="#al"/><use transform="matrix(0.05,0,0,0.05,17.95,0)" xlink:href="#ax"/><use transform="matrix(0.05,0,0,0.05,27.950000000000003,0)" xlink:href="#aB"/><use transform="matrix(0.05,0,0,0.05,37.95,0)" xlink:href="#at"/><use transform="matrix(0.05,0,0,0.05,47.95,0)" xlink:href="#aC"/><use transform="matrix(0.05,0,0,0.05,56.95,0)" xlink:href="#av"/><use transform="matrix(0.05,0,0,0.05,61.95,0)" xlink:href="#ao"/><use transform="matrix(0.05,0,0,0.05,65.9,0)" xlink:href="#ax"/><use transform="matrix(0.05,0,0,0.05,75.9,0)" xlink:href="#aj"/><use transform="matrix(0.05,0,0,0.05,85.9,0)" xlink:href="#ah"/><use transform="matrix(0.05,0,0,0.05,91.85000000000001,0)" xlink:href="#al"/><use transform="matrix(0.05,0,0,0.05,97.80000000000001,0)" xlink:href="#aq"/><use transform="matrix(0.05,0,0,0.05,107.80000000000001,0)" xlink:href="#ak"/><use transform="matrix(0.05,0,0,0.05,117.80000000000001,0)" xlink:href="#aB"/><use transform="matrix(0.05,0,0,0.05,127.80000000000001,0)" xlink:href="#ao"/><use transform="matrix(0.05,0,0,0.05,131.75,0)" xlink:href="#aj"/><use transform="matrix(0.05,0,0,0.05,141.75,0)" xlink:href="#aq"/><use transform="matrix(0.05,0,0,0.05,151.75,0)" xlink:href="#ar"/><use transform="matrix(0.05,0,0,0.05,160.75,0)" xlink:href="#ar"/></g><path d="M108 0H70L1-190h34L89-25l56-165h34" id="aD"/><g id="j"><use transform="matrix(0.05,0,0,0.05,0,0)" xlink:href="#ay"/><use transform="matrix(0.05,0,0,0.05,3.95,0)" xlink:href="#aq"/><use transform="matrix(0.05,0,0,0.05,13.949999999999998,0)" xlink:href="#aD"/><use transform="matrix(0.05,0,0,0.05,22.95,0)" xlink:href="#aq"/><use transform="matrix(0.05,0,0,0.05,32.95,0)" xlink:href="#ay"/><use transform="matrix(0.05,0,0,0.05,36.900000000000006,0)" xlink:href="#az"/></g><path d="M210-169c-67 3-38 105-44 169h-31v-121c0-29-5-50-35-48C34-165 62-65 56 0H25l-1-190h30c1 10-1 24 2 32 10-44 99-50 107 0 11-21 27-35 58-36 85-2 47 119 55 194h-31v-121c0-29-5-49-35-48" id="aE"/><g id="k"><use transform="matrix(0.05,0,0,0.05,0,0)" xlink:href="#ap"/><use transform="matrix(0.05,0,0,0.05,10,0)" xlink:href="#aq"/><use transform="matrix(0.05,0,0,0.05,20,0)" xlink:href="#ay"/><use transform="matrix(0.05,0,0,0.05,23.95,0)" xlink:href="#ay"/><use transform="matrix(0.05,0,0,0.05,27.899999999999995,0)" xlink:href="#aE"/><use transform="matrix(0.05,0,0,0.05,42.85,0)" xlink:href="#ak"/><use transform="matrix(0.05,0,0,0.05,52.85,0)" xlink:href="#aj"/></g><g id="l"><use transform="matrix(0.05,0,0,0.05,0,0)" xlink:href="#al"/><use transform="matrix(0.05,0,0,0.05,5.95,0)" xlink:href="#at"/><use transform="matrix(0.05,0,0,0.05,15.949999999999998,0)" xlink:href="#ar"/><use transform="matrix(0.05,0,0,0.05,24.95,0)" xlink:href="#av"/></g><path d="M115-194c55 1 70 41 70 98S169 2 115 4C84 4 66-9 55-30l1 105H24l-1-265h31l2 30c10-21 28-34 59-34zm-8 174c40 0 45-34 45-75s-6-73-45-74c-42 0-51 32-51 76 0 43 10 73 51 73" id="aF"/><g id="m"><use transform="matrix(0.05,0,0,0.05,0,0)" xlink:href="#ao"/><use transform="matrix(0.05,0,0,0.05,3.95,0)" xlink:href="#aE"/><use transform="matrix(0.05,0,0,0.05,18.900000000000002,0)" xlink:href="#aF"/><use transform="matrix(0.05,0,0,0.05,28.900000000000002,0)" xlink:href="#ay"/><use transform="matrix(0.05,0,0,0.05,32.85,0)" xlink:href="#aq"/><use transform="matrix(0.05,0,0,0.05,42.85,0)" xlink:href="#aE"/><use transform="matrix(0.05,0,0,0.05,57.800000000000004,0)" xlink:href="#aq"/><use transform="matrix(0.05,0,0,0.05,67.80000000000001,0)" xlink:href="#aj"/><use transform="matrix(0.05,0,0,0.05,77.80000000000001,0)" xlink:href="#av"/><use transform="matrix(0.05,0,0,0.05,82.80000000000001,0)" xlink:href="#ak"/><use transform="matrix(0.05,0,0,0.05,92.80000000000001,0)" xlink:href="#av"/><use transform="matrix(0.05,0,0,0.05,97.80000000000001,0)" xlink:href="#ao"/><use transform="matrix(0.05,0,0,0.05,101.75000000000001,0)" xlink:href="#ax"/><use transform="matrix(0.05,0,0,0.05,111.75,0)" xlink:href="#aj"/></g><path d="M101-234c-31-9-42 10-38 44h38v23H63V0H32v-167H5v-23h27c-7-52 17-82 69-68v24" id="aG"/><g id="n"><use transform="matrix(0.05,0,0,0.05,0,0)" xlink:href="#aG"/><use transform="matrix(0.05,0,0,0.05,5,0)" xlink:href="#ax"/><use transform="matrix(0.05,0,0,0.05,15,0)" xlink:href="#al"/></g><path d="M106-169C34-169 62-67 57 0H25v-261h32l-1 103c12-21 28-36 61-36 89 0 53 116 60 194h-32v-121c2-32-8-49-39-48" id="aH"/><path d="M27 0v-27h64v-190l-56 39v-29l58-41h29v221h61V0H27" id="aI"/><path d="M110-160c48 1 74 30 74 79 0 53-28 85-80 85-65 0-83-55-86-122-5-90 50-162 133-122 14 7 22 21 27 39l-31 6c-5-40-67-38-82-6-9 19-15 44-15 74 11-20 30-34 60-33zm-7 138c34 0 49-23 49-58s-16-56-50-56c-29 0-50 16-49 49 1 36 15 65 50 65" id="aJ"/><path d="M68-38c1 34 0 65-14 84H32c9-13 17-26 17-46H33v-38h35" id="aK"/><g id="o"><use transform="matrix(0.05,0,0,0.05,0,0)" xlink:href="#as"/><use transform="matrix(0.05,0,0,0.05,10,0)" xlink:href="#al"/><use transform="matrix(0.05,0,0,0.05,15.949999999999998,0)" xlink:href="#ax"/><use transform="matrix(0.05,0,0,0.05,25.950000000000003,0)" xlink:href="#av"/><use transform="matrix(0.05,0,0,0.05,30.950000000000003,0)" xlink:href="#aH"/><use transform="matrix(0.05,0,0,0.05,40.95,0)" xlink:href="#aI"/><use transform="matrix(0.05,0,0,0.05,50.95,0)" xlink:href="#aJ"/><use transform="matrix(0.05,0,0,0.05,60.95,0)" xlink:href="#aK"/></g><g id="p"><use transform="matrix(0.05,0,0,0.05,0,0)" xlink:href="#aH"/><use transform="matrix(0.05,0,0,0.05,10,0)" xlink:href="#aq"/><use transform="matrix(0.05,0,0,0.05,20,0)" xlink:href="#ay"/><use transform="matrix(0.05,0,0,0.05,23.95,0)" xlink:href="#aF"/><use transform="matrix(0.05,0,0,0.05,33.95,0)" xlink:href="#aq"/><use transform="matrix(0.05,0,0,0.05,43.95,0)" xlink:href="#al"/></g><g id="q"><use transform="matrix(0.05,0,0,0.05,0,0)" xlink:href="#aG"/><use transform="matrix(0.05,0,0,0.05,5,0)" xlink:href="#at"/><use transform="matrix(0.05,0,0,0.05,15,0)" xlink:href="#aj"/><use transform="matrix(0.05,0,0,0.05,25,0)" xlink:href="#aC"/><use transform="matrix(0.05,0,0,0.05,34,0)" xlink:href="#av"/><use transform="matrix(0.05,0,0,0.05,39,0)" xlink:href="#ao"/><use transform="matrix(0.05,0,0,0.05,42.95,0)" xlink:href="#ax"/><use transform="matrix(0.05,0,0,0.05,52.95,0)" xlink:href="#aj"/><use transform="matrix(0.05,0,0,0.05,62.95,0)" xlink:href="#ar"/></g><g id="r"><use transform="matrix(0.05,0,0,0.05,0,0)" xlink:href="#aG"/><use transform="matrix(0.05,0,0,0.05,5,0)" xlink:href="#ax"/><use transform="matrix(0.05,0,0,0.05,15,0)" xlink:href="#al"/></g><g id="s"><use transform="matrix(0.05,0,0,0.05,0,0)" xlink:href="#aq"/><use transform="matrix(0.05,0,0,0.05,10,0)" xlink:href="#ay"/><use transform="matrix(0.05,0,0,0.05,13.949999999999998,0)" xlink:href="#ay"/><use transform="matrix(0.05,0,0,0.05,17.9,0)" xlink:href="#ao"/><use transform="matrix(0.05,0,0,0.05,21.849999999999998,0)" xlink:href="#aF"/><use transform="matrix(0.05,0,0,0.05,31.849999999999994,0)" xlink:href="#av"/><use transform="matrix(0.05,0,0,0.05,36.849999999999994,0)" xlink:href="#ao"/><use transform="matrix(0.05,0,0,0.05,40.8,0)" xlink:href="#aC"/></g><g id="t"><use transform="matrix(0.05,0,0,0.05,0,0)" xlink:href="#aC"/><use transform="matrix(0.05,0,0,0.05,9,0)" xlink:href="#at"/><use transform="matrix(0.05,0,0,0.05,19,0)" xlink:href="#al"/><use transform="matrix(0.05,0,0,0.05,24.95,0)" xlink:href="#aD"/><use transform="matrix(0.05,0,0,0.05,33.95,0)" xlink:href="#aq"/><use transform="matrix(0.05,0,0,0.05,43.95,0)" xlink:href="#ar"/></g><path d="M190 0L58-211 59 0H30v-248h39L202-35l-2-213h31V0h-41" id="aL"/><g id="u"><use transform="matrix(0.05,0,0,0.05,0,0)" xlink:href="#aL"/><use transform="matrix(0.05,0,0,0.05,12.950000000000001,0)" xlink:href="#ax"/></g><path d="M33 0v-248h34V0H33" id="aM"/><g id="v"><use transform="matrix(0.05,0,0,0.05,0,0)" xlink:href="#aM"/><use transform="matrix(0.05,0,0,0.05,5,0)" xlink:href="#aj"/></g><g id="w"><use transform="matrix(0.05,0,0,0.05,0,0)" xlink:href="#aB"/><use transform="matrix(0.05,0,0,0.05,10,0)" xlink:href="#aq"/><use transform="matrix(0.05,0,0,0.05,20,0)" xlink:href="#aD"/><use transform="matrix(0.05,0,0,0.05,29,0)" xlink:href="#aq"/><use transform="matrix(0.05,0,0,0.05,39,0)" xlink:href="#ay"/><use transform="matrix(0.05,0,0,0.05,42.95,0)" xlink:href="#ax"/><use transform="matrix(0.05,0,0,0.05,52.95,0)" xlink:href="#aF"/><use transform="matrix(0.05,0,0,0.05,62.95,0)" xlink:href="#aE"/><use transform="matrix(0.05,0,0,0.05,77.9,0)" xlink:href="#aq"/><use transform="matrix(0.05,0,0,0.05,87.9,0)" xlink:href="#aj"/><use transform="matrix(0.05,0,0,0.05,97.9,0)" xlink:href="#av"/></g><path d="M24-231v-30h32v30H24zM-9 49c24 4 33-6 33-30v-209h32V24c2 40-23 58-65 49V49" id="aN"/><g id="x"><use transform="matrix(0.05,0,0,0.05,0,0)" xlink:href="#aN"/><use transform="matrix(0.05,0,0,0.05,3.95,0)" xlink:href="#ar"/><use transform="matrix(0.05,0,0,0.05,12.949999999999998,0)" xlink:href="#aj"/><use transform="matrix(0.05,0,0,0.05,22.95,0)" xlink:href="#ak"/><use transform="matrix(0.05,0,0,0.05,32.95,0)" xlink:href="#al"/><use transform="matrix(0.05,0,0,0.05,38.900000000000006,0)" xlink:href="#am"/></g><g id="y"><use transform="matrix(0.05,0,0,0.05,0,0)" xlink:href="#aN"/><use transform="matrix(0.05,0,0,0.05,3.95,0)" xlink:href="#ak"/><use transform="matrix(0.05,0,0,0.05,13.949999999999998,0)" xlink:href="#aD"/><use transform="matrix(0.05,0,0,0.05,22.95,0)" xlink:href="#ak"/></g><g id="z"><use transform="matrix(0.05,0,0,0.05,0,0)" xlink:href="#aw"/><use transform="matrix(0.05,0,0,0.05,12.950000000000001,0)" xlink:href="#ai"/><use transform="matrix(0.05,0,0,0.05,24.950000000000003,0)" xlink:href="#an"/></g><g id="A"><use transform="matrix(0.05,0,0,0.05,0,0)" xlink:href="#aC"/><use transform="matrix(0.05,0,0,0.05,9,0)" xlink:href="#al"/><use transform="matrix(0.05,0,0,0.05,14.949999999999998,0)" xlink:href="#aq"/><use transform="matrix(0.05,0,0,0.05,24.95,0)" xlink:href="#ak"/><use transform="matrix(0.05,0,0,0.05,34.95,0)" xlink:href="#av"/><use transform="matrix(0.05,0,0,0.05,39.95,0)" xlink:href="#ao"/><use transform="matrix(0.05,0,0,0.05,43.900000000000006,0)" xlink:href="#aj"/><use transform="matrix(0.05,0,0,0.05,53.900000000000006,0)" xlink:href="#as"/></g><g id="B"><use transform="matrix(0.05,0,0,0.05,0,0)" xlink:href="#aC"/><use transform="matrix(0.05,0,0,0.05,9,0)" xlink:href="#ao"/><use transform="matrix(0.05,0,0,0.05,12.949999999999998,0)" xlink:href="#al"/><use transform="matrix(0.05,0,0,0.05,18.9,0)" xlink:href="#aC"/><use transform="matrix(0.05,0,0,0.05,27.899999999999995,0)" xlink:href="#at"/><use transform="matrix(0.05,0,0,0.05,37.9,0)" xlink:href="#ao"/><use transform="matrix(0.05,0,0,0.05,41.85,0)" xlink:href="#av"/><use transform="matrix(0.05,0,0,0.05,46.85,0)" xlink:href="#ar"/><use transform="matrix(0.05,0,0,0.05,55.85,0)" xlink:href="#aK"/></g><path d="M179-190L93 31C79 59 56 82 12 73V49c39 6 53-20 64-50L1-190h34L92-34l54-156h33" id="aO"/><g id="C"><use transform="matrix(0.05,0,0,0.05,0,0)" xlink:href="#aC"/><use transform="matrix(0.05,0,0,0.05,9,0)" xlink:href="#al"/><use transform="matrix(0.05,0,0,0.05,14.949999999999998,0)" xlink:href="#aO"/><use transform="matrix(0.05,0,0,0.05,23.95,0)" xlink:href="#aF"/><use transform="matrix(0.05,0,0,0.05,33.95,0)" xlink:href="#av"/><use transform="matrix(0.05,0,0,0.05,38.95,0)" xlink:href="#ax"/><use transform="matrix(0.05,0,0,0.05,48.95,0)" xlink:href="#as"/><use transform="matrix(0.05,0,0,0.05,58.95,0)" xlink:href="#al"/><use transform="matrix(0.05,0,0,0.05,64.9,0)" xlink:href="#ak"/><use transform="matrix(0.05,0,0,0.05,74.9,0)" xlink:href="#aF"/><use transform="matrix(0.05,0,0,0.05,84.9,0)" xlink:href="#aH"/><use transform="matrix(0.05,0,0,0.05,94.9,0)" xlink:href="#ao"/><use transform="matrix(0.05,0,0,0.05,98.85000000000001,0)" xlink:href="#aC"/></g><g id="D"><use transform="matrix(0.05,0,0,0.05,0,0)" xlink:href="#aF"/><use transform="matrix(0.05,0,0,0.05,10,0)" xlink:href="#al"/><use transform="matrix(0.05,0,0,0.05,15.949999999999998,0)" xlink:href="#ao"/><use transform="matrix(0.05,0,0,0.05,19.9,0)" xlink:href="#aE"/><use transform="matrix(0.05,0,0,0.05,34.85,0)" xlink:href="#ao"/><use transform="matrix(0.05,0,0,0.05,38.800000000000004,0)" xlink:href="#av"/><use transform="matrix(0.05,0,0,0.05,43.800000000000004,0)" xlink:href="#ao"/><use transform="matrix(0.05,0,0,0.05,47.75000000000001,0)" xlink:href="#aD"/><use transform="matrix(0.05,0,0,0.05,56.75,0)" xlink:href="#aq"/><use transform="matrix(0.05,0,0,0.05,66.75,0)" xlink:href="#ar"/><use transform="matrix(0.05,0,0,0.05,75.75,0)" xlink:href="#aK"/></g><g id="E"><use transform="matrix(0.05,0,0,0.05,0,0)" xlink:href="#ay"/><use transform="matrix(0.05,0,0,0.05,3.95,0)" xlink:href="#ax"/><use transform="matrix(0.05,0,0,0.05,13.949999999999998,0)" xlink:href="#av"/><use transform="matrix(0.05,0,0,0.05,18.95,0)" xlink:href="#ar"/></g><g id="F"><use transform="matrix(0.05,0,0,0.05,0,0)" xlink:href="#ax"/><use transform="matrix(0.05,0,0,0.05,10,0)" xlink:href="#aG"/></g><g id="G"><use transform="matrix(0.05,0,0,0.05,0,0)" xlink:href="#aB"/><use transform="matrix(0.05,0,0,0.05,10,0)" xlink:href="#ax"/><use transform="matrix(0.05,0,0,0.05,20,0)" xlink:href="#aC"/><use transform="matrix(0.05,0,0,0.05,29,0)" xlink:href="#at"/><use transform="matrix(0.05,0,0,0.05,39,0)" xlink:href="#aE"/><use transform="matrix(0.05,0,0,0.05,53.95,0)" xlink:href="#aq"/><use transform="matrix(0.05,0,0,0.05,63.95,0)" xlink:href="#aj"/><use transform="matrix(0.05,0,0,0.05,73.95,0)" xlink:href="#av"/><use transform="matrix(0.05,0,0,0.05,78.95,0)" xlink:href="#ak"/><use transform="matrix(0.05,0,0,0.05,88.95,0)" xlink:href="#av"/><use transform="matrix(0.05,0,0,0.05,93.95,0)" xlink:href="#ao"/><use transform="matrix(0.05,0,0,0.05,97.9,0)" xlink:href="#ax"/><use transform="matrix(0.05,0,0,0.05,107.9,0)" xlink:href="#aj"/></g><path d="M137-103V0h-34v-103L8-248h37l75 118 75-118h37" id="aP"/><g id="H"><use transform="matrix(0.05,0,0,0.05,0,0)" xlink:href="#aP"/><use transform="matrix(0.05,0,0,0.05,10.35,0)" xlink:href="#aq"/><use transform="matrix(0.05,0,0,0.05,20.35,0)" xlink:href="#ar"/></g><g id="I"><use transform="matrix(0.05,0,0,0.05,0,0)" xlink:href="#aL"/><use transform="matrix(0.05,0,0,0.05,12.950000000000001,0)" xlink:href="#ax"/></g><g id="J"><use transform="matrix(0.05,0,0,0.05,0,0)" xlink:href="#aB"/><use transform="matrix(0.05,0,0,0.05,10,0)" xlink:href="#ao"/><use transform="matrix(0.05,0,0,0.05,13.949999999999998,0)" xlink:href="#ar"/><use transform="matrix(0.05,0,0,0.05,22.95,0)" xlink:href="#aC"/><use transform="matrix(0.05,0,0,0.05,31.950000000000003,0)" xlink:href="#ay"/><use transform="matrix(0.05,0,0,0.05,35.9,0)" xlink:href="#ak"/><use transform="matrix(0.05,0,0,0.05,45.9,0)" xlink:href="#ao"/><use transform="matrix(0.05,0,0,0.05,49.85,0)" xlink:href="#aE"/><use transform="matrix(0.05,0,0,0.05,64.8,0)" xlink:href="#aq"/><use transform="matrix(0.05,0,0,0.05,74.8,0)" xlink:href="#al"/><use transform="matrix(0.05,0,0,0.05,80.75,0)" xlink:href="#ar"/></g><g id="K"><use transform="matrix(0.05,0,0,0.05,0,0)" xlink:href="#ap"/><use transform="matrix(0.05,0,0,0.05,10,0)" xlink:href="#at"/><use transform="matrix(0.05,0,0,0.05,20,0)" xlink:href="#av"/></g><g id="L"><use transform="matrix(0.05,0,0,0.05,0,0)" xlink:href="#ak"/><use transform="matrix(0.05,0,0,0.05,10,0)" xlink:href="#ay"/><use transform="matrix(0.05,0,0,0.05,13.949999999999998,0)" xlink:href="#ar"/><use transform="matrix(0.05,0,0,0.05,22.95,0)" xlink:href="#ax"/></g><g id="M"><use transform="matrix(0.05,0,0,0.05,0,0)" xlink:href="#aj"/><use transform="matrix(0.05,0,0,0.05,10,0)" xlink:href="#ax"/></g><g id="N"><use transform="matrix(0.05,0,0,0.05,0,0)" xlink:href="#av"/><use transform="matrix(0.05,0,0,0.05,5,0)" xlink:href="#aq"/><use transform="matrix(0.05,0,0,0.05,15,0)" xlink:href="#ar"/><use transform="matrix(0.05,0,0,0.05,24,0)" xlink:href="#av"/><use transform="matrix(0.05,0,0,0.05,29,0)" xlink:href="#ar"/></g><g id="O"><use transform="matrix(0.05,0,0,0.05,0,0)" xlink:href="#ar"/><use transform="matrix(0.05,0,0,0.05,9,0)" xlink:href="#aj"/><use transform="matrix(0.05,0,0,0.05,19,0)" xlink:href="#ak"/><use transform="matrix(0.05,0,0,0.05,29,0)" xlink:href="#al"/><use transform="matrix(0.05,0,0,0.05,34.95,0)" xlink:href="#am"/><use transform="matrix(0.05,0,0,0.05,43.95,0)" xlink:href="#aO"/></g><path d="M140-251c81 0 123 46 123 126C263-46 219 4 140 4 59 4 17-45 17-125s42-126 123-126zm0 227c63 0 89-41 89-101s-29-99-89-99c-61 0-89 39-89 99S79-25 140-24" id="aQ"/><path d="M212-179c-10-28-35-45-73-45-59 0-87 40-87 99 0 60 29 101 89 101 43 0 62-24 78-52l27 14C228-24 195 4 139 4 59 4 22-46 18-125c-6-104 99-153 187-111 19 9 31 26 39 46" id="aR"/><g id="P"><use transform="matrix(0.05,0,0,0.05,0,0)" xlink:href="#aQ"/><use transform="matrix(0.05,0,0,0.05,14,0)" xlink:href="#aR"/><use transform="matrix(0.05,0,0,0.05,26.950000000000003,0)" xlink:href="#ak"/><use transform="matrix(0.05,0,0,0.05,36.95,0)" xlink:href="#aE"/><use transform="matrix(0.05,0,0,0.05,51.900000000000006,0)" xlink:href="#ay"/></g><g id="Q"><use transform="matrix(0.05,0,0,0.05,0,0)" xlink:href="#aw"/><use transform="matrix(0.05,0,0,0.05,12.950000000000001,0)" xlink:href="#ao"/><use transform="matrix(0.05,0,0,0.05,16.900000000000002,0)" xlink:href="#ar"/><use transform="matrix(0.05,0,0,0.05,25.900000000000002,0)" xlink:href="#aC"/><use transform="matrix(0.05,0,0,0.05,34.900000000000006,0)" xlink:href="#ay"/><use transform="matrix(0.05,0,0,0.05,38.85000000000001,0)" xlink:href="#ak"/><use transform="matrix(0.05,0,0,0.05,48.85000000000001,0)" xlink:href="#ao"/><use transform="matrix(0.05,0,0,0.05,52.80000000000001,0)" xlink:href="#aE"/><use transform="matrix(0.05,0,0,0.05,67.75000000000001,0)" xlink:href="#aq"/><use transform="matrix(0.05,0,0,0.05,77.75000000000001,0)" xlink:href="#al"/></g><g id="R"><use transform="matrix(0.05,0,0,0.05,0,0)" xlink:href="#aj"/><use transform="matrix(0.05,0,0,0.05,10,0)" xlink:href="#ax"/><use transform="matrix(0.05,0,0,0.05,20,0)" xlink:href="#av"/></g><g id="S"><use transform="matrix(0.05,0,0,0.05,0,0)" xlink:href="#av"/><use transform="matrix(0.05,0,0,0.05,5,0)" xlink:href="#ax"/></g><g id="T"><use transform="matrix(0.05,0,0,0.05,0,0)" xlink:href="#at"/><use transform="matrix(0.05,0,0,0.05,10,0)" xlink:href="#ar"/><use transform="matrix(0.05,0,0,0.05,19,0)" xlink:href="#aq"/></g><g id="U"><use transform="matrix(0.05,0,0,0.05,0,0)" xlink:href="#ao"/><use transform="matrix(0.05,0,0,0.05,3.95,0)" xlink:href="#aj"/></g><g id="V"><use transform="matrix(0.05,0,0,0.05,0,0)" xlink:href="#aF"/><use transform="matrix(0.05,0,0,0.05,10,0)" xlink:href="#al"/><use transform="matrix(0.05,0,0,0.05,15.949999999999998,0)" xlink:href="#ax"/><use transform="matrix(0.05,0,0,0.05,25.950000000000003,0)" xlink:href="#aB"/><use transform="matrix(0.05,0,0,0.05,35.95,0)" xlink:href="#at"/><use transform="matrix(0.05,0,0,0.05,45.95,0)" xlink:href="#aC"/><use transform="matrix(0.05,0,0,0.05,54.95,0)" xlink:href="#av"/><use transform="matrix(0.05,0,0,0.05,59.95,0)" xlink:href="#ao"/><use transform="matrix(0.05,0,0,0.05,63.900000000000006,0)" xlink:href="#ax"/><use transform="matrix(0.05,0,0,0.05,73.9,0)" xlink:href="#aj"/></g><g id="W"><use transform="matrix(0.05,0,0,0.05,0,0)" xlink:href="#aq"/><use transform="matrix(0.05,0,0,0.05,10,0)" xlink:href="#av"/><use transform="matrix(0.05,0,0,0.05,15,0)" xlink:href="#aH"/><use transform="matrix(0.05,0,0,0.05,25,0)" xlink:href="#ar"/><use transform="matrix(0.05,0,0,0.05,34,0)" xlink:href="#aj"/><use transform="matrix(0.05,0,0,0.05,44,0)" xlink:href="#ak"/><use transform="matrix(0.05,0,0,0.05,54,0)" xlink:href="#al"/><use transform="matrix(0.05,0,0,0.05,59.95,0)" xlink:href="#am"/><use transform="matrix(0.05,0,0,0.05,68.95,0)" xlink:href="#ar"/></g><path d="M0 4l72-265h28L28 4H0" id="aS"/><path d="M118-107v75H92v-75H18v-26h74v-75h26v75h74v26h-74" id="aT"/><g id="X"><use transform="matrix(0.05,0,0,0.05,0,0)" xlink:href="#aR"/><use transform="matrix(0.05,0,0,0.05,12.950000000000001,0)" xlink:href="#aS"/><use transform="matrix(0.05,0,0,0.05,17.950000000000003,0)" xlink:href="#aR"/><use transform="matrix(0.05,0,0,0.05,30.900000000000006,0)" xlink:href="#aT"/><use transform="matrix(0.05,0,0,0.05,41.400000000000006,0)" xlink:href="#aT"/></g><g id="Y"><use transform="matrix(0.05,0,0,0.05,0,0)" xlink:href="#aF"/><use transform="matrix(0.05,0,0,0.05,10,0)" xlink:href="#al"/><use transform="matrix(0.05,0,0,0.05,15.949999999999998,0)" xlink:href="#aq"/><use transform="matrix(0.05,0,0,0.05,25.950000000000003,0)" xlink:href="#ap"/><use transform="matrix(0.05,0,0,0.05,35.95,0)" xlink:href="#at"/><use transform="matrix(0.05,0,0,0.05,45.95,0)" xlink:href="#ao"/><use transform="matrix(0.05,0,0,0.05,49.900000000000006,0)" xlink:href="#ay"/><use transform="matrix(0.05,0,0,0.05,53.85,0)" xlink:href="#av"/></g><path d="M9 0v-24l116-142H16v-24h144v24L44-24h123V0H9" id="aU"/><g id="Z"><use transform="matrix(0.05,0,0,0.05,0,0)" xlink:href="#aC"/><use transform="matrix(0.05,0,0,0.05,9,0)" xlink:href="#ao"/><use transform="matrix(0.05,0,0,0.05,12.949999999999998,0)" xlink:href="#al"/><use transform="matrix(0.05,0,0,0.05,18.9,0)" xlink:href="#aC"/><use transform="matrix(0.05,0,0,0.05,27.899999999999995,0)" xlink:href="#at"/><use transform="matrix(0.05,0,0,0.05,37.9,0)" xlink:href="#ao"/><use transform="matrix(0.05,0,0,0.05,41.85,0)" xlink:href="#av"/><use transform="matrix(0.05,0,0,0.05,46.85,0)" xlink:href="#ar"/><use transform="matrix(0.05,0,0,0.05,55.85,0)" xlink:href="#aS"/><use transform="matrix(0.05,0,0,0.05,60.85,0)" xlink:href="#ax"/><use transform="matrix(0.05,0,0,0.05,70.85,0)" xlink:href="#aF"/><use transform="matrix(0.05,0,0,0.05,80.85,0)" xlink:href="#av"/><use transform="matrix(0.05,0,0,0.05,85.85,0)" xlink:href="#ao"/><use transform="matrix(0.05,0,0,0.05,89.8,0)" xlink:href="#aE"/><use transform="matrix(0.05,0,0,0.05,104.75,0)" xlink:href="#ao"/><use transform="matrix(0.05,0,0,0.05,108.7,0)" xlink:href="#aU"/><use transform="matrix(0.05,0,0,0.05,117.7,0)" xlink:href="#ak"/><use transform="matrix(0.05,0,0,0.05,127.7,0)" xlink:href="#av"/><use transform="matrix(0.05,0,0,0.05,132.7,0)" xlink:href="#ao"/><use transform="matrix(0.05,0,0,0.05,136.64999999999998,0)" xlink:href="#ax"/><use transform="matrix(0.05,0,0,0.05,146.64999999999998,0)" xlink:href="#aj"/><use transform="matrix(0.05,0,0,0.05,156.64999999999998,0)" xlink:href="#ar"/></g><g id="aa"><use transform="matrix(0.05,0,0,0.05,0,0)" xlink:href="#aB"/><use transform="matrix(0.05,0,0,0.05,10,0)" xlink:href="#aq"/><use transform="matrix(0.05,0,0,0.05,20,0)" xlink:href="#aD"/><use transform="matrix(0.05,0,0,0.05,29,0)" xlink:href="#aq"/><use transform="matrix(0.05,0,0,0.05,39,0)" xlink:href="#ay"/><use transform="matrix(0.05,0,0,0.05,42.95,0)" xlink:href="#ax"/><use transform="matrix(0.05,0,0,0.05,52.95,0)" xlink:href="#aF"/><use transform="matrix(0.05,0,0,0.05,62.95,0)" xlink:href="#aE"/><use transform="matrix(0.05,0,0,0.05,77.9,0)" xlink:href="#aq"/><use transform="matrix(0.05,0,0,0.05,87.9,0)" xlink:href="#aj"/><use transform="matrix(0.05,0,0,0.05,97.9,0)" xlink:href="#av"/></g><g id="ab"><use transform="matrix(0.05,0,0,0.05,0,0)" xlink:href="#aE"/><use transform="matrix(0.05,0,0,0.05,14.950000000000001,0)" xlink:href="#ax"/><use transform="matrix(0.05,0,0,0.05,24.950000000000003,0)" xlink:href="#al"/><use transform="matrix(0.05,0,0,0.05,30.900000000000002,0)" xlink:href="#aq"/></g><g id="ac"><use transform="matrix(0.05,0,0,0.05,0,0)" xlink:href="#av"/><use transform="matrix(0.05,0,0,0.05,5,0)" xlink:href="#aq"/><use transform="matrix(0.05,0,0,0.05,15,0)" xlink:href="#ar"/><use transform="matrix(0.05,0,0,0.05,24,0)" xlink:href="#av"/><use transform="matrix(0.05,0,0,0.05,29,0)" xlink:href="#ar"/></g><g id="ad"><use transform="matrix(0.05,0,0,0.05,0,0)" xlink:href="#av"/><use transform="matrix(0.05,0,0,0.05,5,0)" xlink:href="#aH"/><use transform="matrix(0.05,0,0,0.05,15,0)" xlink:href="#ak"/><use transform="matrix(0.05,0,0,0.05,25,0)" xlink:href="#aj"/></g><g id="ae"><use transform="matrix(0.05,0,0,0.05,0,0)" xlink:href="#ax"/><use transform="matrix(0.05,0,0,0.05,10,0)" xlink:href="#av"/><use transform="matrix(0.05,0,0,0.05,15,0)" xlink:href="#aH"/><use transform="matrix(0.05,0,0,0.05,25,0)" xlink:href="#aq"/><use transform="matrix(0.05,0,0,0.05,35,0)" xlink:href="#al"/><use transform="matrix(0.05,0,0,0.05,40.95,0)" xlink:href="#ar"/></g></defs></g></svg>