<svg width="13" height="17" viewBox="0 0 13 17" fill="none" xmlns="http://www.w3.org/2000/svg">
<path d="M7.08501 2.55462C7.33082 3.94514 6.53361 5.24853 6.53361 5.24853C6.53361 5.24853 5.33786 4.29745 5.09205 2.90692C4.84624 1.5164 4.64697 0.38916 5.64345 0.213007C6.63993 0.0368539 6.8392 1.16409 7.08501 2.55462Z" fill="#212B34"/>
<path d="M9.00268 3.12501C8.47902 4.43637 7.11472 5.12417 7.11472 5.12417C7.11472 5.12417 6.59945 3.68581 7.12311 2.37444C7.64678 1.06307 8.07129 0 9.01107 0.375281C9.95086 0.750562 9.52635 1.81364 9.00268 3.12501Z" fill="#E3EBE8"/>
<path fill-rule="evenodd" clip-rule="evenodd" d="M8.27584 14.9022C8.35906 14.8471 8.54703 14.7778 8.80231 14.6838C10.0705 14.2166 13 13.1375 13 10.1371C13 7.41916 10.1764 5.21582 6.69337 5.21582C3.54265 5.21582 0.931559 7.01875 0.461968 9.37463H4.29679C4.52647 9.37463 4.71267 9.56082 4.71267 9.79051C4.71267 10.0202 4.52647 10.2064 4.29679 10.2064H0.415894C0.406272 10.2064 0.396727 10.2061 0.387268 10.2054C0.430804 12.9616 3.10617 14.024 4.5055 14.5796L4.50552 14.5796C4.87144 14.7249 5.15011 14.8356 5.27164 14.9328C5.86173 15.405 6.76268 16.9992 6.76268 16.9992C6.76268 16.9992 7.77918 15.2312 8.27584 14.9022ZM1.07971 10.7615C0.850027 10.7615 0.66383 10.9477 0.66383 11.1774C0.66383 11.4071 0.850027 11.5933 1.07971 11.5933H3.15871C3.38839 11.5933 3.57459 11.4071 3.57459 11.1774C3.57459 10.9477 3.38839 10.7615 3.15871 10.7615H1.07971Z" fill="#212B34"/>
</svg>
