<svg xmlns="http://www.w3.org/2000/svg" viewBox="0 0 89.9 69.86"><title>Asset 1</title><g id="Layer_2" data-name="Layer 2"><g id="Layer_1-2" data-name="Layer 1"><polygon points="24.49 19.33 57.07 0 89.87 18.37 57.33 37.77 24.49 19.33"/><polygon points="57.35 37.79 89.89 18.39 89.88 24.53 57.32 43.85 57.35 37.79"/><polygon points="24.48 25.41 57.32 43.85 57.35 37.79 24.51 19.35 24.48 25.41"/><polygon points="57.31 50.89 89.86 31.49 89.84 37.63 57.28 56.95 57.31 50.89"/><polygon points="24.44 38.51 57.28 56.95 57.31 50.89 24.47 32.45 24.44 38.51"/><polygon points="57.21 63.8 89.76 44.41 89.74 50.54 57.18 69.86 57.21 63.8"/><polygon points="0 37.77 57.18 69.86 57.21 63.8 0.03 31.71 0 37.77"/></g></g></svg>