<svg id="Layer_1" data-name="Layer 1" xmlns="http://www.w3.org/2000/svg" viewBox="0 0 418 237.13"><defs><style>.cls-1{fill:#fff;}.cls-2{fill:#df4326;}</style></defs><title>baselineVertical Logo - Dark Background</title><polyline class="cls-1" points="164.38 63.34 164.62 63.18 209.53 36.53 254.81 61.86 255.08 62.03 255.05 70.21 209.88 97.02 164.3 71.42"/><polygon class="cls-1" points="209.87 106.79 255.03 79.87 255 88.38 209.82 115.19 209.87 106.79"/><polygon class="cls-1" points="164.26 89.61 209.82 115.19 209.87 106.79 164.3 81.2 164.26 89.61"/><polygon class="cls-2" points="209.73 124.71 254.9 97.79 254.87 106.3 209.69 133.11 209.73 124.71"/><polygon class="cls-2" points="130.34 88.58 209.69 133.11 209.73 124.71 130.38 80.18 130.34 88.58"/><path class="cls-1" d="M56.93,196a23.11,23.11,0,0,1-7.32-5.82v7.46H41.08V133.29h8.53v22.87A18.64,18.64,0,0,1,56,150.83a19.84,19.84,0,0,1,9.74-2.32,24.44,24.44,0,0,1,17.35,7.27,25.51,25.51,0,0,1,5.28,8,25,25,0,0,1,0,19.09,25.55,25.55,0,0,1-5.28,8,24.44,24.44,0,0,1-17.35,7.27A19.2,19.2,0,0,1,56.93,196Zm2.61-37.46A14.56,14.56,0,0,0,54.46,162a17.05,17.05,0,0,0-3.4,5.18,15.61,15.61,0,0,0-1.26,6.16,15.86,15.86,0,0,0,4.66,11.34,15.25,15.25,0,0,0,5.08,3.49,15.61,15.61,0,0,0,6.16,1.26,15.23,15.23,0,0,0,6.11-1.26,15.45,15.45,0,0,0,5-3.49,15.82,15.82,0,0,0,4.66-11.34,15.61,15.61,0,0,0-1.26-6.16,17.05,17.05,0,0,0-3.4-5.18,14.74,14.74,0,0,0-5-3.44,15.71,15.71,0,0,0-6.11-1.21A16.1,16.1,0,0,0,59.54,158.54Z"/><path class="cls-1" d="M135.77,197.64v-7.36A24.44,24.44,0,0,1,128.6,196a18.34,18.34,0,0,1-8.63,2.13,24.23,24.23,0,0,1-9.45-1.84,23.92,23.92,0,0,1-7.8-5.24,23.2,23.2,0,0,1-5.28-7.8,24.57,24.57,0,0,1,0-18.9,24.56,24.56,0,0,1,5.28-7.9A24,24,0,0,1,120,149.38a20.5,20.5,0,0,1,15.8,7.36v-6.39h8.72v47.29Zm-22-38.42a15,15,0,0,0-8.43,8.43,16,16,0,0,0-1.21,6.15,15.71,15.71,0,0,0,1.21,6.11,15.09,15.09,0,0,0,8.43,8.38A16,16,0,0,0,120,189.5a15.67,15.67,0,0,0,6.11-1.21,15.21,15.21,0,0,0,8.38-8.38,15.71,15.71,0,0,0,1.21-6.11,16,16,0,0,0-1.21-6.15,15.09,15.09,0,0,0-8.38-8.43A15.68,15.68,0,0,0,120,158,16,16,0,0,0,113.82,159.22Z"/><path class="cls-1" d="M174.93,160.33c-1.23-2.13-3.66-3.2-7.27-3.2a11.55,11.55,0,0,0-4.46.68,6.3,6.3,0,0,0-3,2.23,5.46,5.46,0,0,0-1,3.2,5.69,5.69,0,0,0,1.55,3.88c1.1,1.22,2.87,1.87,5.33,1.93a43.36,43.36,0,0,1,10.52,1.55,11.54,11.54,0,0,1,6.2,4.37q2.18,3.09,2.18,8.72a13.19,13.19,0,0,1-4.36,9.88,17.21,17.21,0,0,1-5,3.3,14.66,14.66,0,0,1-6,1.26h-1.46q-7.75,0-12.5-4.46-3.88-3.58-4.85-10.08h8.63a7.28,7.28,0,0,0,1.94,3.78,8.6,8.6,0,0,0,6.2,2.13,9.42,9.42,0,0,0,1.55-.09,8.61,8.61,0,0,0,5.33-1.89,5.39,5.39,0,0,0,1.94-4.22c0-2.33-.71-3.84-2.13-4.55s-4.17-1.07-8.24-1.07q-7.65,0-11.73-4.85a13.44,13.44,0,0,1-3.29-9.3,15.77,15.77,0,0,1,.09-1.94,13.59,13.59,0,0,1,5.19-9.64q4.41-3.34,11.68-3.35a18.09,18.09,0,0,1,9.3,2.33,15.68,15.68,0,0,1,4.85,4.85,18.94,18.94,0,0,1,2.52,7.75l-.2.1h-8.23A9.11,9.11,0,0,0,174.93,160.33Z"/><path class="cls-1" d="M199.54,177.1a8.72,8.72,0,0,0,1.7,4.84,18.69,18.69,0,0,0,3.92,4.27,15,15,0,0,0,9.5,3.2q8.63,0,14.06-8.34l7.36,4.36a27.53,27.53,0,0,1-9.3,9.4,23.21,23.21,0,0,1-12.12,3.3,23.85,23.85,0,0,1-9.4-1.89,24.63,24.63,0,0,1-13.13-13.13,23.85,23.85,0,0,1-1.89-9.4,24.58,24.58,0,0,1,7.17-17.35,22.86,22.86,0,0,1,7.8-5.24,25.19,25.19,0,0,1,18.9,0,22.67,22.67,0,0,1,7.8,5.24,23.68,23.68,0,0,1,7.18,17,25.38,25.38,0,0,1-.29,3.69ZM207.2,159a15.11,15.11,0,0,0-5.57,4.61,10.09,10.09,0,0,0-2.09,6.06h30.24a10.08,10.08,0,0,0-2.08-6.06,15.19,15.19,0,0,0-5.57-4.61,16.88,16.88,0,0,0-14.93,0Z"/><path class="cls-1" d="M247.32,197.64V133.19h7.76v64.45Z"/><path class="cls-1" d="M265.59,140.9a4.44,4.44,0,1,1,3.15,1.31A4.3,4.3,0,0,1,265.59,140.9Zm-.82,56.74V149.19h8.14v48.45Z"/><path class="cls-1" d="M312.36,197.64V168.57A10.69,10.69,0,0,0,294,161.11a11.06,11.06,0,0,0-2.33,3.44,9.91,9.91,0,0,0-.87,4v29.07h-8.43V150.35h8.43v4a14.22,14.22,0,0,1,4.85-3.68,13.46,13.46,0,0,1,5.91-1.45,18.8,18.8,0,0,1,7.41,1.5,19.68,19.68,0,0,1,6.25,4.21,19.33,19.33,0,0,1,5.62,13.67v29.07Z"/><path class="cls-1" d="M337.46,177.1a8.7,8.7,0,0,0,1.69,4.84,18.5,18.5,0,0,0,3.93,4.27,14.94,14.94,0,0,0,9.5,3.2q8.63,0,14.05-8.34l7.37,4.36a27.55,27.55,0,0,1-9.31,9.4,23.17,23.17,0,0,1-12.11,3.3,23.81,23.81,0,0,1-9.4-1.89A24.69,24.69,0,0,1,330,183.11a23.85,23.85,0,0,1-1.89-9.4,24.54,24.54,0,0,1,7.18-17.35,22.67,22.67,0,0,1,7.8-5.24,25.19,25.19,0,0,1,18.9,0,22.86,22.86,0,0,1,7.8,5.24,23.71,23.71,0,0,1,7.17,17,25.38,25.38,0,0,1-.29,3.69ZM345.11,159a15.19,15.19,0,0,0-5.57,4.61,10.08,10.08,0,0,0-2.08,6.06H367.7a10.09,10.09,0,0,0-2.09-6.06A15.11,15.11,0,0,0,360,159a16.88,16.88,0,0,0-14.93,0Z"/></svg>