<svg width="13" height="17" viewBox="0 0 13 17" fill="none" xmlns="http://www.w3.org/2000/svg">
<path d="M7.08494 2.55402C7.33071 3.94435 6.53348 5.24758 6.53348 5.24758C6.53348 5.24758 5.33776 4.29665 5.09199 2.90632C4.84621 1.516 4.64697 0.388916 5.64345 0.212764C6.63992 0.0366113 6.83916 1.16369 7.08494 2.55402Z" fill="#C3CDD3"/>
<path d="M9.00276 3.12469C8.47916 4.4359 7.11494 5.12357 7.11494 5.12357C7.11494 5.12357 6.59963 3.68535 7.12323 2.37415C7.64683 1.06294 8.07129 0 9.01106 0.375273C9.95082 0.750547 9.52636 1.81349 9.00276 3.12469Z" fill="#DFE3E8"/>
<path fill-rule="evenodd" clip-rule="evenodd" d="M8.27583 14.9008C8.77248 14.5718 13 13.7402 13 10.1364C13 7.41884 10.1764 5.21582 6.69336 5.21582C3.2103 5.21582 0.386719 7.41884 0.386719 10.1364C0.386719 13.6709 4.68153 14.4594 5.27162 14.9314C5.86172 15.4035 6.76267 16.9975 6.76267 16.9975C6.76267 16.9975 7.77917 15.2297 8.27583 14.9008Z" fill="#C3CDD3"/>
<rect y="9.37402" width="4.71266" height="0.831645" rx="0.415823" fill="#444F59"/>
<rect x="0.663818" y="10.7607" width="2.91076" height="0.831645" rx="0.415823" fill="#444F59"/>
</svg>
